<svg class="img-fluid" id="outputsvg" xmlns="http://www.w3.org/2000/svg" width="485" height="485" viewBox="0 0 4850 4850"><g id="l3AMYzgmpT8WgyZkAYRBXdi" fill="rgb(179,85,72)" style="transform: none;"><g><path id="p184QSj6h1" d="M1920 4793 c-607 -139 -1110 -469 -1462 -958 -416 -579 -554 -1312 -378 -2008 190 -749 739 -1373 1456 -1653 728 -285 1549 -204 2200 217 428 277 757 678 940 1145 253 647 219 1371 -93 1984 -318 624 -884 1078 -1558 1250 -60 15 -127 31 -149 34 l-38 7 6 -33 c4 -18 11 -73 15 -123 4 -49 13 -121 19 -160 6 -38 18 -137 27 -220 9 -82 20 -177 26 -210 5 -33 14 -87 19 -120 26 -177 57 -333 100 -500 39 -155 149 -456 180 -495 11 -14 28 -41 39 -60 10 -19 31 -46 45 -59 14 -14 26 -30 26 -37 0 -17 51 -55 117 -88 35 -17 54 -34 58 -49 8 -40 16 -150 15 -221 0 -67 -2 -71 -60 -159 -33 -49 -60 -100 -60 -113 0 -13 -4 -24 -10 -24 -5 0 -10 7 -10 15 0 8 -13 24 -30 37 -16 12 -30 28 -30 35 0 30 -56 126 -88 151 -31 23 -45 27 -131 30 -93 4 -97 5 -113 32 -11 20 -33 33 -79 49 -34 11 -74 21 -87 21 -41 0 -127 -29 -162 -55 -42 -31 -45 -31 -84 -2 -50 37 -131 67 -183 67 -51 0 -159 -44 -199 -81 -20 -19 -21 -19 -40 2 -31 35 -109 69 -157 69 -57 0 -158 -35 -202 -70 -32 -26 -41 -28 -94 -23 -52 5 -64 3 -92 -18 -48 -36 -109 -98 -109 -112 0 -7 -18 -38 -39 -70 l-39 -59 -26 34 c-14 19 -33 54 -41 78 -9 24 -22 51 -29 60 -8 8 -25 47 -38 85 -12 39 -27 73 -32 76 -16 12 3 26 44 33 38 6 40 8 40 44 0 20 -9 55 -21 76 -11 21 -19 39 -17 41 2 1 31 16 64 33 67 34 148 111 178 170 10 20 24 44 31 52 7 8 18 33 25 55 7 22 20 54 30 72 43 75 126 346 171 561 5 23 14 63 19 90 12 56 26 134 45 257 8 50 20 122 28 160 8 39 24 122 36 185 23 120 27 142 68 305 13 55 27 119 30 143 5 41 4 42 -23 41 -16 0 -58 -7 -94 -16z m-511 -2874 c6 -18 11 -73 11 -123 l0 -92 38 -35 c20 -19 63 -57 95 -83 l58 -48 -27 -14 c-14 -8 -40 -26 -58 -40 -17 -14 -51 -39 -76 -55 -25 -16 -64 -44 -87 -61 -57 -45 -121 -83 -165 -99 -34 -12 -39 -11 -72 15 -44 33 -56 54 -62 114 -7 56 6 86 103 254 29 51 69 100 114 142 51 47 74 76 85 110 9 25 20 46 24 46 4 0 13 -14 19 -31z m2198 -189 c59 -74 141 -228 162 -304 8 -32 7 -46 -6 -73 -16 -34 -65 -82 -86 -84 -62 -6 -191 62 -305 161 -71 61 -86 70 -121 70 -22 0 -52 -5 -66 -10 -26 -10 -25 -8 13 37 28 34 54 53 88 65 43 15 53 25 80 75 28 51 33 71 39 171 l7 113 68 -73 c37 -40 94 -107 127 -148z"></path></g></g><g id="lpI0r84P2Qw4AlZVEJmIS2" fill="rgb(252,253,253)" style="transform: none;"><g><path id="pBpMuI5Am" d="M2315 4844 c-76 -5 -253 -24 -281 -30 -14 -4 -24 -16 -27 -32 -12 -57 -57 -236 -62 -251 -4 -9 -11 -41 -15 -71 -5 -30 -12 -66 -16 -80 -3 -14 -8 -36 -9 -50 -2 -14 -6 -36 -9 -50 -3 -14 -11 -50 -17 -80 -6 -30 -13 -64 -15 -75 -2 -11 -9 -49 -14 -85 -5 -36 -12 -81 -16 -100 -3 -19 -10 -60 -15 -90 -5 -30 -13 -76 -19 -102 -5 -27 -14 -67 -19 -90 -45 -215 -128 -486 -171 -561 -10 -18 -23 -50 -30 -72 -7 -22 -18 -47 -25 -55 -7 -8 -21 -32 -31 -52 -34 -66 -113 -138 -191 -176 -40 -19 -75 -37 -77 -41 -3 -4 8 -27 23 -52 38 -61 47 -89 27 -89 -31 0 -15 -20 17 -21 l32 -1 -40 -13 c-22 -7 -52 -16 -67 -19 -31 -7 -35 -17 -16 -38 7 -7 24 -44 36 -83 13 -38 30 -77 38 -85 7 -9 21 -36 29 -60 9 -25 30 -63 48 -85 43 -53 42 -103 -1 -148 -17 -18 -38 -52 -47 -76 -10 -30 -36 -62 -84 -107 -73 -67 -137 -166 -206 -314 -57 -122 11 -281 121 -282 57 0 191 68 259 132 17 16 51 41 77 57 25 15 62 41 82 57 l36 28 46 -40 c34 -31 59 -44 102 -52 92 -18 123 -30 207 -81 44 -26 111 -62 149 -80 l69 -32 71 37 c39 20 88 47 108 59 l37 21 80 -42 c67 -35 91 -42 136 -42 67 0 154 29 198 66 40 34 85 53 151 64 98 17 112 21 187 56 42 19 82 34 88 34 7 0 49 -31 93 -70 45 -38 118 -90 162 -114 135 -74 210 -71 271 8 52 68 44 137 -32 296 -48 100 -107 180 -236 320 -97 105 -104 120 -80 180 10 25 18 53 19 62 1 10 27 56 59 104 53 78 59 92 62 148 l4 61 -43 27 -42 27 44 -6 c40 -6 43 -5 35 13 -5 10 -9 46 -10 79 -1 86 -9 102 -68 131 -66 33 -117 71 -117 88 0 7 -12 23 -26 37 -14 13 -35 40 -45 59 -11 19 -28 46 -39 60 -31 38 -141 340 -179 490 -10 42 -47 199 -57 245 -8 37 -35 200 -40 240 -2 22 -9 60 -14 85 -5 25 -12 68 -15 95 -4 28 -9 68 -11 90 -3 22 -7 51 -8 65 -2 14 -9 78 -14 143 -6 64 -13 121 -17 126 -3 5 -8 49 -11 98 -3 48 -10 102 -15 119 l-10 32 -127 15 c-134 17 -327 26 -427 21z m-25 -853 c58 -27 144 -27 203 -2 25 11 66 23 91 26 38 6 52 3 88 -18 24 -14 57 -40 73 -57 l30 -33 -48 36 c-72 55 -162 62 -244 20 -34 -18 -40 -26 -55 -84 -21 -80 -24 -310 -5 -384 11 -42 23 -58 74 -102 42 -35 80 -57 120 -69 74 -23 80 -28 63 -59 -32 -61 -110 -30 -201 79 -75 91 -87 90 -200 -19 -94 -91 -122 -104 -166 -83 -50 24 -37 48 43 77 78 29 159 92 190 151 16 30 19 57 19 190 -1 257 -31 325 -148 337 -82 8 -135 -20 -182 -96 -21 -34 -39 -61 -41 -61 -7 0 11 37 41 86 29 46 51 62 115 88 25 9 93 -2 140 -23z m-637 -1202 c12 -6 36 -24 52 -39 32 -29 83 -50 121 -50 13 0 24 -4 24 -10 0 -5 -8 -10 -17 -10 -10 0 -56 -14 -103 -31 -86 -31 -271 -81 -277 -76 -1 2 -4 26 -5 54 -2 44 3 59 35 108 55 83 92 94 170 54z m1621 0 c37 -16 51 -30 72 -71 21 -42 24 -55 15 -75 -6 -13 -11 -33 -11 -44 0 -17 -5 -19 -37 -14 -21 4 -49 10 -63 15 -14 5 -61 18 -106 29 -45 12 -108 32 -140 46 l-59 24 78 1 c65 0 78 3 83 18 18 59 53 92 100 92 12 0 42 -9 68 -21z m-782 -330 c25 -13 67 -37 92 -53 l47 -29 53 37 c29 20 74 42 100 50 43 13 52 13 107 -6 46 -15 66 -28 80 -52 l19 -31 93 0 c86 0 96 -2 129 -27 33 -25 88 -120 88 -152 0 -8 11 -21 25 -30 40 -26 46 -57 47 -236 l1 -166 -34 -62 c-30 -56 -39 -64 -83 -80 -36 -13 -60 -31 -95 -73 -25 -31 -53 -70 -62 -86 -16 -29 -20 -30 -105 -36 -119 -9 -151 -19 -198 -66 -91 -89 -221 -92 -313 -9 -11 11 -39 22 -60 25 -34 4 -45 1 -75 -25 -19 -17 -63 -43 -97 -58 l-62 -27 -70 28 c-44 17 -88 44 -122 75 -42 38 -61 48 -102 54 -78 12 -149 49 -239 128 -46 40 -111 97 -144 126 l-62 53 0 92 c0 62 -6 108 -17 140 -12 33 -14 50 -7 55 6 4 14 25 17 46 4 22 21 63 38 90 18 28 43 71 56 96 23 43 46 68 112 118 34 26 49 27 79 7 19 -14 25 -14 54 1 18 9 45 27 61 40 15 13 58 33 97 45 69 22 69 22 112 3 24 -10 65 -39 91 -63 l48 -45 26 33 c34 44 157 104 198 98 17 -3 51 -16 77 -28z"></path></g></g><g id="l7R2GXEnZnBCdt4qgvdHGBV" fill="rgb(43,17,25)" style="transform: none;"><g><path id="p15P21VdBl" d="M2101 4038 c-66 -22 -141 -127 -141 -197 0 -29 3 -31 34 -31 30 0 37 6 71 61 29 48 47 65 82 80 76 33 142 1 163 -78 22 -86 24 -106 25 -223 0 -94 -3 -121 -19 -150 -31 -59 -112 -122 -190 -151 -56 -20 -73 -31 -80 -52 -20 -57 24 -97 107 -97 52 0 71 12 167 106 l75 73 58 -69 c73 -87 141 -124 201 -110 39 9 45 14 70 60 23 41 0 69 -73 92 -44 13 -80 34 -123 71 -76 65 -89 103 -86 257 3 135 22 223 52 243 45 30 100 40 140 27 44 -14 110 -76 159 -148 31 -45 36 -49 42 -32 3 11 4 29 0 40 -3 11 -8 32 -11 47 -14 81 -57 138 -134 178 -45 23 -144 18 -216 -12 -70 -28 -96 -29 -154 -2 -53 25 -168 34 -219 17z"></path><path id="pHMXxFOHE" d="M1523 2835 c-19 -8 -47 -36 -70 -71 -33 -50 -38 -65 -39 -118 -1 -68 9 -61 -127 -91 -42 -10 -77 -21 -77 -25 0 -4 5 -21 11 -39 9 -24 16 -31 28 -25 9 3 30 10 46 14 17 4 82 23 145 43 63 20 138 41 165 47 28 6 84 24 125 39 41 16 98 34 126 41 29 6 62 22 74 34 27 30 21 34 -91 50 -53 8 -81 21 -104 46 -27 30 -112 70 -150 70 -16 -1 -44 -7 -62 -15z"></path><path id="pOw6P3dgU" d="M3177 2839 c-57 -9 -84 -30 -95 -73 -8 -31 -9 -31 -78 -33 -79 -2 -124 -16 -124 -37 0 -24 209 -99 380 -136 19 -4 55 -13 80 -20 25 -8 47 -14 50 -15 7 -1 44 -24 117 -72 l63 -41 0 56 c0 57 -6 76 -25 78 -48 8 -165 37 -165 43 0 4 7 17 16 29 19 27 12 66 -22 134 -19 37 -34 51 -68 67 -63 27 -75 29 -129 20z"></path></g></g></svg>