<svg class="img-fluid" id="outputsvg" xmlns="http://www.w3.org/2000/svg" width="485" height="485" viewBox="0 0 4850 4850"><g id="l5Sl3FSuLr6VqeCOLf0DnaV" fill="rgb(161,76,65)" style="transform: none;"><g><path id="pUFCOIC8U" d="M1920 4793 c-607 -139 -1110 -469 -1462 -958 -416 -579 -554 -1312 -378 -2008 190 -749 739 -1373 1456 -1653 728 -285 1549 -204 2200 217 428 277 757 678 940 1145 253 647 219 1371 -93 1984 -318 624 -884 1078 -1558 1250 -60 15 -127 31 -149 34 l-38 7 6 -33 c4 -18 11 -73 15 -123 4 -49 13 -121 19 -160 6 -38 18 -137 27 -220 9 -82 20 -177 26 -210 5 -33 14 -87 19 -120 26 -177 57 -333 100 -500 39 -155 149 -456 180 -495 11 -14 26 -37 34 -51 14 -25 14 -26 -8 -22 -13 3 -55 0 -92 -6 -72 -11 -114 -40 -114 -80 0 -15 -12 -19 -76 -25 -113 -10 -124 -17 -124 -70 l0 -44 79 -32 c75 -30 216 -72 306 -90 98 -21 263 -102 289 -142 7 -11 -7 -40 -52 -108 -34 -51 -62 -103 -62 -116 0 -13 -4 -24 -10 -24 -5 0 -10 7 -10 15 0 8 -13 24 -30 37 -16 12 -30 28 -30 35 0 30 -56 126 -88 151 -31 23 -45 27 -131 30 -93 4 -97 5 -113 32 -11 20 -33 33 -79 49 -34 11 -74 21 -87 21 -41 0 -127 -29 -162 -55 -42 -31 -45 -31 -84 -2 -50 37 -131 67 -183 67 -51 0 -159 -44 -199 -81 -20 -19 -21 -19 -40 2 -31 35 -109 69 -157 69 -57 0 -158 -35 -202 -70 -32 -26 -41 -28 -94 -23 -52 5 -64 3 -92 -18 -48 -36 -109 -98 -109 -112 0 -7 -18 -38 -39 -70 l-39 -59 -26 34 c-14 19 -33 54 -41 78 -9 24 -21 51 -29 60 -19 22 -47 100 -41 111 4 5 13 9 21 9 8 0 79 20 157 44 78 24 158 46 178 50 20 4 63 17 95 30 33 13 88 32 124 41 78 20 110 46 110 91 0 37 -18 46 -119 63 -49 8 -72 18 -95 40 -45 42 -93 64 -159 70 l-59 6 25 36 c13 20 30 54 37 75 7 22 20 53 30 71 43 75 126 346 171 561 5 23 14 63 19 90 12 56 26 134 45 257 8 50 20 122 28 160 8 39 24 122 36 185 23 120 27 142 68 305 13 55 27 119 30 143 5 41 4 42 -23 41 -16 0 -58 -7 -94 -16z m-540 -2128 c0 -46 -3 -55 -17 -55 -15 0 -60 67 -51 75 4 3 62 34 66 35 1 0 2 -25 2 -55z m2134 0 c3 -9 6 -30 6 -46 0 -29 -1 -30 -37 -23 -21 4 -39 7 -39 8 -1 0 -4 27 -6 58 l-5 57 38 -19 c20 -11 39 -26 43 -35z m-2105 -746 c6 -18 11 -73 11 -123 l0 -92 38 -35 c20 -19 63 -57 95 -83 l58 -48 -27 -14 c-14 -8 -40 -26 -58 -40 -17 -14 -51 -39 -76 -55 -25 -16 -64 -44 -87 -61 -57 -45 -121 -83 -165 -99 -34 -12 -39 -11 -72 15 -44 33 -56 54 -62 114 -7 56 6 86 103 254 29 51 69 100 114 142 51 47 74 76 85 110 9 25 20 46 24 46 4 0 13 -14 19 -31z m2198 -189 c59 -74 141 -228 162 -304 8 -32 7 -46 -6 -73 -16 -34 -65 -82 -86 -84 -62 -6 -191 62 -305 161 -71 61 -86 70 -121 70 -22 0 -52 -5 -66 -10 -26 -10 -25 -8 13 37 28 34 54 53 88 65 43 15 53 25 80 75 28 51 33 71 39 171 l7 113 68 -73 c37 -40 94 -107 127 -148z"></path><path id="p13xMoHp4G" d="M2071 4068 c-78 -27 -141 -127 -141 -227 l0 -61 63 0 63 0 41 64 c32 49 49 66 77 76 32 10 39 9 65 -9 25 -18 33 -35 47 -99 25 -106 25 -236 0 -282 -31 -57 -112 -122 -185 -148 -36 -13 -72 -31 -78 -40 -20 -25 -16 -116 6 -143 16 -20 30 -24 95 -27 42 -2 87 -1 101 2 14 4 57 36 95 73 l71 66 57 -60 c71 -74 127 -98 204 -89 29 4 58 10 64 14 22 14 54 78 54 107 -1 53 -22 76 -89 97 -44 13 -80 34 -123 71 -78 66 -92 107 -83 247 11 165 28 201 105 216 50 11 121 -47 188 -153 22 -35 33 -42 58 -43 49 0 57 46 28 171 -18 79 -45 118 -113 161 -41 26 -53 28 -138 28 -75 0 -105 -5 -152 -24 l-59 -24 -43 21 c-52 24 -223 33 -278 15z"></path></g></g><g id="l3ceRNOuBwUd9WgFr2M6Gnq" fill="rgb(252,253,253)" style="transform: none;"><g><path id="pUMRpQtYy" d="M2315 4844 c-76 -5 -253 -24 -281 -30 -14 -4 -24 -16 -27 -32 -12 -57 -57 -236 -62 -251 -4 -9 -11 -41 -15 -71 -5 -30 -12 -66 -16 -80 -3 -14 -8 -36 -9 -50 -2 -14 -6 -36 -9 -50 -3 -14 -11 -50 -17 -80 -6 -30 -13 -64 -15 -75 -2 -11 -9 -49 -14 -85 -5 -36 -12 -81 -16 -100 -3 -19 -10 -60 -15 -90 -5 -30 -13 -76 -19 -102 -5 -27 -14 -67 -19 -90 -45 -215 -128 -486 -171 -561 -10 -18 -23 -50 -30 -72 -7 -22 -18 -47 -25 -55 -7 -8 -21 -32 -31 -52 -32 -62 -113 -138 -183 -172 -98 -47 -95 -43 -71 -81 12 -19 28 -48 36 -65 12 -23 22 -30 42 -29 57 1 65 11 66 76 1 52 6 67 39 117 40 60 81 86 134 86 36 0 122 -41 148 -70 23 -25 51 -38 104 -46 64 -9 76 -12 94 -19 17 -7 17 -9 -3 -31 -12 -12 -45 -28 -74 -34 -28 -7 -85 -25 -126 -41 -41 -15 -97 -33 -125 -39 -27 -6 -106 -28 -175 -49 -69 -21 -137 -42 -153 -45 -18 -4 -27 -13 -27 -26 0 -26 39 -131 56 -150 7 -9 21 -36 29 -60 9 -25 30 -63 48 -85 43 -53 42 -103 -1 -148 -17 -18 -38 -52 -47 -76 -10 -30 -36 -62 -84 -107 -73 -67 -137 -166 -206 -314 -57 -122 11 -281 121 -282 57 0 191 68 259 132 17 16 51 41 77 57 25 15 62 41 82 57 l36 28 46 -40 c34 -31 59 -44 102 -52 92 -18 123 -30 207 -81 44 -26 111 -62 149 -80 l69 -32 71 37 c39 20 88 47 108 59 l37 21 80 -42 c67 -35 91 -42 136 -42 67 0 154 29 198 66 40 34 85 53 151 64 98 17 112 21 187 56 42 19 82 34 88 34 7 0 49 -31 93 -70 45 -38 118 -90 162 -114 135 -74 210 -71 271 8 52 68 44 137 -32 296 -48 100 -107 180 -236 320 -97 105 -104 120 -80 180 10 25 18 53 19 62 1 10 26 55 57 100 86 129 86 152 -5 208 -29 18 -64 40 -78 49 -14 8 -27 16 -30 16 -3 1 -25 7 -50 15 -25 7 -61 16 -80 20 -171 37 -380 112 -380 136 0 21 45 35 124 37 69 2 70 2 78 33 11 44 38 64 99 73 75 12 154 -20 186 -75 39 -66 48 -113 28 -147 -9 -15 -15 -30 -13 -32 1 -2 40 -12 84 -22 l82 -20 6 52 c9 79 -6 111 -68 142 -65 32 -116 70 -116 87 0 7 -12 23 -26 37 -14 13 -35 40 -45 59 -11 19 -28 46 -39 60 -31 38 -141 340 -179 490 -10 42 -47 199 -57 245 -8 37 -35 200 -40 240 -2 22 -9 60 -14 85 -5 25 -12 68 -15 95 -4 28 -9 68 -11 90 -3 22 -7 51 -8 65 -2 14 -9 78 -14 143 -6 64 -13 121 -17 126 -3 5 -8 49 -11 98 -3 48 -10 102 -15 119 l-10 32 -127 15 c-134 17 -327 26 -427 21z m5 -823 c58 -27 84 -26 154 2 72 30 171 35 216 12 77 -40 120 -97 134 -178 3 -15 8 -36 11 -47 4 -11 3 -29 0 -40 -6 -17 -11 -13 -42 32 -49 72 -115 134 -159 148 -40 13 -95 3 -140 -27 -30 -20 -49 -108 -52 -243 -3 -154 10 -192 86 -257 43 -37 79 -58 123 -71 73 -23 96 -51 73 -92 -25 -46 -31 -51 -70 -60 -60 -14 -128 23 -201 110 l-58 69 -75 -73 c-96 -94 -115 -106 -167 -106 -83 0 -127 40 -107 97 7 21 24 32 80 52 78 29 159 92 190 151 16 29 19 56 19 150 -1 117 -3 137 -25 223 -21 79 -87 111 -163 78 -35 -15 -53 -32 -82 -80 -34 -55 -41 -61 -71 -61 -31 0 -34 2 -34 31 0 70 75 175 141 197 51 17 166 8 219 -17z m172 -1562 c25 -13 67 -37 92 -53 l47 -29 53 37 c29 20 74 42 100 50 43 13 52 13 107 -6 46 -15 66 -28 80 -52 l19 -31 93 0 c86 0 96 -2 129 -27 33 -25 88 -120 88 -152 0 -8 11 -21 25 -30 40 -26 46 -57 47 -236 l1 -166 -34 -62 c-30 -56 -39 -64 -83 -80 -36 -13 -60 -31 -95 -73 -25 -31 -53 -70 -62 -86 -16 -29 -20 -30 -105 -36 -119 -9 -151 -19 -198 -66 -91 -89 -221 -92 -313 -9 -11 11 -39 22 -60 25 -34 4 -45 1 -75 -25 -19 -17 -63 -43 -97 -58 l-62 -27 -70 28 c-44 17 -88 44 -122 75 -42 38 -61 48 -102 54 -78 12 -149 49 -239 128 -46 40 -111 97 -144 126 l-62 53 0 92 c0 62 -6 108 -17 140 -12 33 -14 50 -7 55 6 4 14 25 17 46 4 22 21 63 38 90 18 28 43 71 56 96 23 43 46 68 112 118 34 26 49 27 79 7 19 -14 25 -14 54 1 18 9 45 27 61 40 15 13 58 33 97 45 69 22 69 22 112 3 24 -10 65 -39 91 -63 l48 -45 26 33 c34 44 157 104 198 98 17 -3 51 -16 77 -28z"></path></g></g></svg>