<svg class="img-fluid" id="outputsvg" xmlns="http://www.w3.org/2000/svg" width="266" height="266" viewBox="0 0 2660 2660"><g id="l3gS0u1dTO2cPP9zEdCBSsW" fill="rgb(0,0,0)" style="transform: none;"><g style="transform: none;"><path id="pwQJdPhwt" d="M1255 2638 c-56 -43 -74 -71 -75 -111 0 -32 7 -45 46 -83 l46 -45 -98 -102 c-54 -56 -126 -131 -161 -166 l-63 -65 0 -159 0 -159 -38 -47 c-58 -69 -95 -130 -122 -194 -19 -45 -31 -62 -56 -72 -108 -45 -169 -366 -77 -408 21 -9 22 -14 15 -66 -14 -105 -7 -301 12 -376 26 -98 118 -311 158 -364 21 -28 56 -57 96 -79 40 -22 62 -40 62 -52 0 -21 19 -30 66 -30 27 0 34 -4 34 -19 0 -17 10 -21 68 -27 201 -22 456 9 587 71 116 55 191 138 221 245 4 14 25 45 47 70 70 79 117 217 117 340 0 48 -22 182 -40 240 -7 26 -7 36 3 42 41 25 42 27 45 123 4 107 -8 157 -59 237 -22 34 -40 51 -59 55 -23 4 -33 18 -60 77 -36 79 -75 140 -132 205 l-38 44 0 156 0 156 -93 95 c-51 52 -122 125 -157 163 l-64 68 47 47 c64 65 65 101 5 159 l-43 41 -105 7 c-100 7 -106 6 -135 -17z"></path><path id="p1D8s95vGk" d="M875 2576 c-96 -37 -234 -110 -310 -164 -70 -49 -225 -188 -225 -201 0 -4 39 -19 88 -35 48 -15 130 -43 182 -61 176 -60 226 -75 258 -75 l32 0 0 98 c0 105 18 245 45 352 29 116 29 110 9 110 -11 -1 -46 -11 -79 -24z"></path><path id="pBxIHiUMN" d="M1810 2533 c0 -16 7 -59 16 -98 8 -38 18 -144 21 -234 l6 -163 66 5 c43 3 129 26 245 66 98 33 181 62 184 65 10 11 -182 190 -261 244 -81 56 -241 142 -264 142 -8 0 -13 -11 -13 -27z"></path></g></g><g id="l2YTWe6fU4CQOkSVskzZDr9" fill="rgb(255,255,255)" style="transform: none;"><g style="transform: none;"><path id="pc2YTQPo7" d="M1205 2648 c-84 -7 -201 -29 -247 -47 -18 -7 -30 -20 -34 -38 -3 -15 -10 -45 -16 -66 -20 -83 -38 -235 -38 -330 0 -89 -2 -98 -17 -93 -9 4 -40 14 -67 23 -28 8 -94 30 -146 48 -52 18 -137 47 -188 63 l-93 31 -62 -79 c-328 -415 -384 -959 -148 -1428 177 -351 499 -604 880 -693 l94 -22 24 27 c12 15 23 31 23 36 0 12 -56 23 -80 15 -29 -9 -60 3 -60 25 0 12 -21 30 -62 52 -81 44 -116 91 -182 248 -100 234 -115 366 -70 587 5 28 3 33 -23 47 -22 11 -33 27 -42 58 -25 88 43 264 113 293 25 10 37 27 56 72 27 64 64 125 122 194 l38 47 0 158 0 159 170 175 c93 96 169 181 170 189 0 8 -25 38 -55 66 -30 29 -55 57 -55 62 0 5 18 28 41 50 24 25 39 49 37 60 -3 16 -10 17 -83 11z"></path><path id="p4mOFRILx" d="M1460 2638 c0 -7 21 -34 47 -60 l47 -48 -63 -64 -64 -64 79 -84 c43 -46 120 -126 171 -178 l93 -95 0 -156 0 -156 38 -44 c57 -65 96 -126 132 -205 27 -59 37 -73 60 -77 52 -11 120 -146 120 -241 0 -73 -7 -88 -46 -114 -26 -17 -34 -28 -28 -40 23 -54 37 -105 50 -181 13 -72 13 -98 3 -161 -15 -94 -54 -181 -107 -241 -22 -25 -44 -59 -48 -75 -10 -41 -52 -114 -85 -149 -76 -81 -222 -139 -374 -150 -55 -4 -113 -11 -130 -16 -16 -4 -57 -12 -90 -15 l-60 -7 40 -9 c54 -11 219 0 335 22 126 24 229 59 348 119 134 68 231 138 343 250 346 348 468 847 324 1326 -44 146 -175 384 -249 454 l-24 23 -185 -62 c-101 -33 -200 -63 -219 -66 l-35 -6 -5 158 c-3 91 -13 196 -23 246 l-18 86 -92 31 c-74 25 -239 61 -276 61 -5 0 -9 -5 -9 -12z"></path></g></g></svg>